<svg viewBox="0 0 600 600" xmlns="http://www.w3.org/2000/svg">
  <defs>
    <linearGradient id="capCrown" x1="0" x2="0" y1="0" y2="1">
      <stop offset="0" stop-color="#ffffff"/>
      <stop offset="1" stop-color="#dcd7c9"/>
    </linearGradient>
    <linearGradient id="capBrim" x1="0" x2="0" y1="0" y2="1">
      <stop offset="0" stop-color="#e3ddca"/>
      <stop offset="1" stop-color="#a7a193"/>
    </linearGradient>
    <filter id="capShadow" x="-10%" y="-10%" width="120%" height="130%">
      <feGaussianBlur in="SourceAlpha" stdDeviation="9"/>
      <feOffset dx="0" dy="14"/>
      <feComponentTransfer><feFuncA type="linear" slope="0.32"/></feComponentTransfer>
      <feMerge><feMergeNode/><feMergeNode in="SourceGraphic"/></feMerge>
    </filter>
  </defs>
  <ellipse cx="300" cy="520" rx="200" ry="14" fill="#000" opacity=".2"/>
  <g filter="url(#capShadow)">
    <path d="M115 350 q-10 -180 185 -200 q195 20 185 200 q-5 35 -45 35 l-280 0 q-40 0 -45 -35 z"
          fill="url(#capCrown)" stroke="#a7a193" stroke-width="2"/>
    <path d="M105 350 q35 80 195 80 q160 0 195 -80 q5 -20 -195 -20 q-200 0 -195 20 z"
          fill="url(#capBrim)" stroke="#867f6f" stroke-width="2"/>
    <path d="M115 340 q40 10 185 10 q145 0 185 -10" fill="none" stroke="#a7a193" stroke-width="1.5"/>
    <circle cx="300" cy="172" r="9" fill="#a7a193"/>
  </g>
</svg>
